<svg width="19" height="34" viewBox="0 0 19 34" fill="none" xmlns="http://www.w3.org/2000/svg">
<path fill-rule="evenodd" clip-rule="evenodd" d="M18.127 1.12358C18.2435 1.2397 18.3358 1.37764 18.3988 1.5295C18.4618 1.68136 18.4943 1.84416 18.4943 2.00858C18.4943 2.173 18.4618 2.3358 18.3988 2.48767C18.3358 2.63953 18.2435 2.77747 18.127 2.89358L4.00954 17.0086L18.127 31.1236C18.3618 31.3583 18.4936 31.6766 18.4936 32.0086C18.4936 32.3405 18.3618 32.6589 18.127 32.8936C17.8923 33.1283 17.574 33.2602 17.242 33.2602C16.9101 33.2602 16.5918 33.1283 16.357 32.8936L1.35704 17.8936C1.24063 17.7775 1.14828 17.6395 1.08526 17.4877C1.02224 17.3358 0.989807 17.173 0.989807 17.0086C0.989807 16.8442 1.02224 16.6814 1.08526 16.5295C1.14828 16.3776 1.24063 16.2397 1.35704 16.1236L16.357 1.12358C16.4732 1.00717 16.6111 0.914817 16.763 0.851801C16.9148 0.788785 17.0776 0.756348 17.242 0.756348C17.4065 0.756348 17.5693 0.788785 17.7211 0.851801C17.873 0.914817 18.0109 1.00717 18.127 1.12358V1.12358Z" fill="black"/>
</svg>
