<svg width="19" height="34" viewBox="0 0 19 34" fill="none" xmlns="http://www.w3.org/2000/svg">
<path fill-rule="evenodd" clip-rule="evenodd" d="M1.35698 1.12358C1.47309 1.00717 1.61103 0.914817 1.7629 0.851801C1.91476 0.788785 2.07756 0.756348 2.24198 0.756348C2.4064 0.756348 2.5692 0.788785 2.72106 0.851801C2.87293 0.914817 3.01087 1.00717 3.12698 1.12358L18.127 16.1236C18.2434 16.2397 18.3357 16.3776 18.3988 16.5295C18.4618 16.6814 18.4942 16.8442 18.4942 17.0086C18.4942 17.173 18.4618 17.3358 18.3988 17.4877C18.3357 17.6395 18.2434 17.7775 18.127 17.8936L3.12698 32.8936C2.89226 33.1283 2.57392 33.2602 2.24198 33.2602C1.91004 33.2602 1.5917 33.1283 1.35698 32.8936C1.12226 32.6589 0.990401 32.3405 0.990401 32.0086C0.990401 31.6766 1.12226 31.3583 1.35698 31.1236L15.4745 17.0086L1.35698 2.89358C1.24057 2.77747 1.14821 2.63953 1.0852 2.48767C1.02218 2.3358 0.989746 2.173 0.989746 2.00858C0.989746 1.84416 1.02218 1.68136 1.0852 1.5295C1.14821 1.37764 1.24057 1.2397 1.35698 1.12358V1.12358Z" fill="black"/>
</svg>
