<svg width="9" height="30" viewBox="0 0 9 30" fill="none" xmlns="http://www.w3.org/2000/svg">
<path fill-rule="evenodd" clip-rule="evenodd" d="M8.17747 0.897369C8.43623 1.02734 8.63289 1.25461 8.72433 1.52935C8.81578 1.80409 8.79454 2.10388 8.66528 2.36299L2.34997 15.0002L8.66747 27.6352C8.73314 27.7637 8.77271 27.904 8.78391 28.0479C8.79511 28.1918 8.77771 28.3365 8.73272 28.4737C8.68772 28.6108 8.61603 28.7377 8.52176 28.847C8.42749 28.9564 8.31252 29.0459 8.18347 29.1106C8.05442 29.1753 7.91385 29.2138 7.76985 29.2238C7.62586 29.2339 7.4813 29.2154 7.34449 29.1693C7.20769 29.1233 7.08136 29.0506 6.97278 28.9555C6.8642 28.8604 6.77552 28.7447 6.71185 28.6152L0.149348 15.4902C0.0731325 15.3381 0.0334473 15.1703 0.0334473 15.0002C0.0334473 14.8301 0.0731325 14.6623 0.149348 14.5102L6.71185 1.38518C6.84181 1.12643 7.06909 0.929767 7.34383 0.838322C7.61857 0.746878 7.91836 0.768112 8.17747 0.897369V0.897369Z" fill="black"/>
</svg>
