<svg width="9" height="30" viewBox="0 0 9 30" fill="none" xmlns="http://www.w3.org/2000/svg">
<path fill-rule="evenodd" clip-rule="evenodd" d="M0.822145 0.897144C1.08148 0.767197 1.38181 0.745588 1.65708 0.83707C1.93234 0.928551 2.16 1.12563 2.28996 1.38496L8.85246 14.51C8.92867 14.6621 8.96836 14.8298 8.96836 15C8.96836 15.1701 8.92867 15.3379 8.85246 15.49L2.28996 28.615C2.22629 28.7445 2.13761 28.8602 2.02903 28.9553C1.92045 29.0504 1.79411 29.1231 1.65731 29.1691C1.52051 29.2152 1.37595 29.2337 1.23195 29.2236C1.08796 29.2135 0.947384 29.175 0.818335 29.1104C0.689286 29.0457 0.574313 28.9561 0.480046 28.8468C0.385779 28.7375 0.314083 28.6106 0.26909 28.4735C0.224097 28.3363 0.206698 28.1916 0.217896 28.0477C0.229093 27.9038 0.268666 27.7635 0.334333 27.635L6.64965 15L0.334333 2.36496C0.204386 2.10562 0.182776 1.80529 0.274258 1.53003C0.365739 1.25476 0.56282 1.02711 0.822145 0.897144V0.897144Z" fill="black"/>
</svg>
