<svg width="50" height="50" viewBox="0 0 50 50" fill="none" xmlns="http://www.w3.org/2000/svg">
<path fill-rule="evenodd" clip-rule="evenodd" d="M16.2123 3.20312C19.4717 2.34062 22.9311 1.5625 25.003 1.5625C27.0717 1.5625 30.5342 2.34062 33.7936 3.20312C36.7008 3.98367 39.5891 4.83287 42.4561 5.75C44.1061 6.275 45.3498 7.69687 45.5905 9.45C47.3811 22.5656 43.2279 32.2844 38.1936 38.7156C36.0482 41.4757 33.5011 43.8984 30.6373 45.9031C29.6415 46.6006 28.5889 47.2132 27.4904 47.7344C26.6467 48.1219 25.7467 48.4375 25.003 48.4375C24.2592 48.4375 23.3592 48.1219 22.5155 47.7344C21.4168 47.2137 20.3641 46.6011 19.3686 45.9031C16.5059 43.8981 13.9599 41.4754 11.8155 38.7156C6.77483 32.2844 2.62483 22.5656 4.41545 9.45C4.53517 8.60022 4.8931 7.80172 5.4478 7.14692C6.0025 6.49212 6.73129 6.00779 7.54983 5.75C10.4169 4.83289 13.3052 3.98369 16.2123 3.20312V3.20312Z" fill="white"/>
</svg>
